# xmcd
#
# Track frame offsets: 
#        150
#        21207
#        33760
#        49432
#        65557
#        82485
#        102749
#        126480
#        142428
#        160758
#        177303
#        196467
#        213204
#        234510
#        247276
#        262062
#
# Disc length: 3978 seconds
#
# Revision: 0
# Processed by: cddbd v1.5.2PL0 Copyright (c) Steve Scherf et al.
# Submitted via: ExactAudioCopy v0.99pb4
#
DISCID=050f8810
DTITLE=Phil Bee and Friends - The Hendrix Files
DYEAR=2002
DGENRE=Bluesrock
TTITLE0=Freedom
TTITLE1=Crosstown Traffic
TTITLE2=Wind Cries Mary
TTITLE3=Manic Depression
TTITLE4=Villanova Junction
TTITLE5=Them Changes
TTITLE6=Spanish Castle Magic
TTITLE7=Angel
TTITLE8=3rd Stone From The Sun
TTITLE9=Lover Man
TTITLE10=Red House
TTITLE11=Rainy Day Dream Away
TTITLE12=Belly Button Window
TTITLE13=Fire
TTITLE14=Hear My Train A Commin'
TTITLE15=Dolly Dagger
EXTD=
EXTT0=
EXTT1=
EXTT2=
EXTT3=
EXTT4=
EXTT5=
EXTT6=
EXTT7=
EXTT8=
EXTT9=
EXTT10=
EXTT11=
EXTT12=
EXTT13=
EXTT14=
EXTT15=
PLAYORDER=
